<?xml version="1.0" standalone="no"?>
<!DOCTYPE svg PUBLIC "-//W3C//DTD SVG 20010904//EN"
 "http://www.w3.org/TR/2001/REC-SVG-20010904/DTD/svg10.dtd">
<svg version="1.0" xmlns="http://www.w3.org/2000/svg"
 width="300.000000pt" height="300.000000pt" viewBox="0 0 300.000000 300.000000"
 preserveAspectRatio="xMidYMid meet">
<metadata>
Created by potrace 1.11, written by Peter Selinger 2001-2013
</metadata>
<g transform="translate(0.000000,300.000000) scale(0.100000,-0.100000)"
fill="#000000" stroke="none">
<path d="M1508 2743 c-10 -3 -18 -8 -18 -13 0 -5 -9 -11 -19 -15 -11 -3 -64
-32 -118 -64 -54 -32 -188 -111 -298 -176 -110 -64 -216 -127 -235 -140 -108
-70 -443 -275 -450 -275 -5 0 -10 -3 -12 -7 -3 -9 -125 -93 -134 -93 -3 0 -10
-5 -17 -10 -7 -6 -41 -29 -77 -53 -36 -23 -71 -48 -78 -54 -7 -7 -18 -13 -24
-13 -6 0 -9 -3 -6 -6 5 -5 531 257 658 328 25 14 133 73 240 131 107 58 287
157 398 220 l204 115 61 -35 c34 -20 76 -43 92 -53 112 -64 388 -220 390 -220
2 0 38 -20 79 -45 42 -25 78 -45 80 -45 2 0 35 -17 73 -38 165 -93 693 -365
698 -360 5 5 -104 78 -115 78 -6 0 -10 4 -10 8 0 5 -16 17 -35 28 -19 10 -35
22 -35 26 0 5 -5 8 -10 8 -6 0 -57 31 -113 69 -157 105 -513 327 -817 509
-353 211 -332 199 -352 195z"/>
<path d="M1954 2004 l1 -256 -70 8 c-38 4 -144 8 -235 8 -180 0 -251 -6 -400
-35 -30 -6 -64 -12 -75 -15 -11 -2 -38 -8 -60 -14 -22 -6 -47 -12 -55 -13 -13
-2 -15 34 -15 270 0 150 -3 274 -5 274 -5 2 -102 -41 -110 -48 -2 -2 -5 -123
-5 -268 0 -162 -4 -267 -10 -273 -6 -4 -37 -19 -70 -31 -119 -47 -375 -182
-383 -203 -2 -4 -8 -8 -13 -8 -10 0 -114 -72 -134 -93 -5 -6 15 4 45 22 141
83 442 215 535 235 l30 7 0 -418 c-1 -230 1 -425 3 -433 2 -12 17 -16 58 -16
30 0 55 2 55 5 1 3 2 205 3 448 0 243 3 444 6 447 3 2 17 7 30 10 14 2 48 10
75 16 28 7 64 13 80 15 17 2 62 7 100 11 183 21 597 3 615 -26 3 -4 5 -213 4
-464 0 -315 3 -456 10 -457 6 -1 27 -3 46 -4 70 -5 65 -41 64 447 -1 244 1
446 2 449 6 10 168 -48 256 -91 101 -49 172 -97 234 -157 143 -139 195 -254
189 -423 -3 -81 -7 -97 -44 -172 -22 -46 -60 -103 -84 -128 -47 -48 -115 -110
-121 -110 -2 0 -28 -16 -57 -36 -30 -20 -88 -52 -129 -71 -41 -19 -83 -39 -92
-44 -10 -5 -26 -9 -36 -9 -10 0 -22 -4 -27 -8 -38 -33 -224 -50 -283 -25 -42
17 -52 29 -52 61 0 59 45 102 185 176 l70 37 -55 -7 c-30 -3 -74 -14 -98 -23
-133 -52 -232 -210 -184 -293 28 -48 86 -59 222 -42 52 6 213 51 250 69 14 7
57 27 95 44 88 41 181 99 269 170 60 48 86 73 161 155 19 21 61 91 83 138 30
66 41 120 42 218 1 36 -3 77 -9 92 -5 14 -8 28 -5 31 9 8 -49 121 -85 167
-133 167 -397 328 -637 387 l-61 15 1 227 c1 124 0 232 -2 239 -4 10 -47 37
-113 70 -3 1 -5 -113 -5 -254z"/>
</g>
</svg>
