<?xml version="1.0" standalone="no"?>
<!DOCTYPE svg PUBLIC "-//W3C//DTD SVG 20010904//EN"
 "http://www.w3.org/TR/2001/REC-SVG-20010904/DTD/svg10.dtd">
<svg version="1.0" xmlns="http://www.w3.org/2000/svg"
 width="300.000000pt" height="300.000000pt" viewBox="0 0 300.000000 300.000000"
 preserveAspectRatio="xMidYMid meet">
<metadata>
Created by potrace 1.11, written by Peter Selinger 2001-2013
</metadata>
<g transform="translate(0.000000,300.000000) scale(0.100000,-0.100000)"
fill="#000000" stroke="none">
<path d="M1395 2528 c-66 -39 -214 -127 -330 -196 -116 -68 -226 -134 -245
-147 -19 -12 -84 -53 -145 -90 -146 -90 -417 -266 -433 -282 -7 -7 -18 -13
-24 -13 -6 0 -9 -3 -5 -6 12 -13 731 365 1183 622 62 35 117 64 122 64 4 0
106 -56 226 -125 120 -69 219 -125 221 -125 2 0 27 -13 55 -30 28 -16 88 -50
133 -74 113 -60 160 -86 175 -98 6 -6 12 -7 12 -3 0 4 6 2 14 -4 22 -18 436
-229 436 -222 0 8 -367 249 -595 391 -168 105 -674 411 -678 410 -1 -1 -56
-33 -122 -72z"/>
<path d="M1899 2168 c-1 -2 -2 -102 -3 -223 -1 -133 -6 -219 -11 -218 -34 5
-181 15 -240 16 -149 0 -337 -23 -476 -58 -31 -8 -59 -15 -62 -15 -3 0 -6 106
-6 236 0 130 -2 238 -4 241 -6 5 -90 -36 -97 -47 -3 -5 -5 -111 -4 -237 l1
-229 -46 -18 c-116 -46 -266 -125 -378 -199 -68 -44 -121 -82 -120 -84 2 -2
42 19 89 46 127 73 331 161 429 186 l25 6 0 -378 0 -378 48 -1 c30 -1 49 3 52
11 3 7 6 185 7 396 l2 383 90 17 c117 23 232 33 375 33 141 -1 305 -16 320
-31 3 -2 5 -185 5 -406 l0 -402 50 0 50 0 2 388 c1 214 4 391 6 394 3 3 21 0
39 -6 18 -6 37 -11 41 -10 4 0 19 -7 33 -15 13 -9 24 -14 24 -11 0 10 177 -84
226 -120 154 -116 234 -260 228 -414 -5 -151 -66 -251 -228 -374 -42 -32 -218
-125 -250 -132 -6 -1 -18 -5 -26 -8 -137 -51 -278 -46 -298 12 -15 43 19 92
96 138 36 21 79 44 96 50 l31 12 -45 -1 c-103 -5 -205 -73 -247 -166 -30 -63
-24 -103 19 -135 76 -57 360 15 578 145 113 69 259 204 307 285 90 155 90 350
-1 482 -98 142 -310 279 -533 347 l-93 29 -1 40 c0 22 0 115 0 207 l-1 167
-49 25 c-27 15 -50 25 -50 24z"/>
</g>
</svg>
